<?xml version="1.0" encoding="UTF-8" standalone="no"?>
<!DOCTYPE svg PUBLIC "-//W3C//DTD SVG 1.1//EN"
 "http://www.w3.org/Graphics/SVG/1.1/DTD/svg11.dtd">
<!-- Generated by graphviz version 2.43.0 (0)
 -->
<!-- Title: G Pages: 1 -->
<svg width="1865pt" height="152pt"
 viewBox="0.00 0.00 1865.00 152.00" xmlns="http://www.w3.org/2000/svg" xmlns:xlink="http://www.w3.org/1999/xlink">
<g id="graph0" class="graph" transform="scale(1 1) rotate(0) translate(4 148)">
<title>G</title>
<polygon fill="white" stroke="transparent" points="-4,4 -4,-148 1861,-148 1861,4 -4,4"/>
<!-- data.yandex_compute_image.ubuntu -->
<g id="node1" class="node">
<title>data.yandex_compute_image.ubuntu</title>
<polygon fill="none" stroke="black" points="534,-117 259,-117 259,-81 534,-81 534,-117"/>
<text text-anchor="middle" x="396.5" y="-95.3" font-family="sans-serif" font-size="14.00">data.yandex_compute_image.ubuntu</text>
</g>
<!-- null_resource.deploy_manager -->
<g id="node2" class="node">
<title>null_resource.deploy_manager</title>
<polygon fill="none" stroke="black" points="1857,-90 1629,-90 1629,-54 1857,-54 1857,-90"/>
<text text-anchor="middle" x="1743" y="-68.3" font-family="sans-serif" font-size="14.00">null_resource.deploy_manager</text>
</g>
<!-- null_resource.docker_worker1 -->
<g id="node3" class="node">
<title>null_resource.docker_worker1</title>
<polygon fill="none" stroke="black" points="1593,-117 1371,-117 1371,-81 1593,-81 1593,-117"/>
<text text-anchor="middle" x="1482" y="-95.3" font-family="sans-serif" font-size="14.00">null_resource.docker_worker1</text>
</g>
<!-- null_resource.deploy_manager&#45;&gt;null_resource.docker_worker1 -->
<g id="edge1" class="edge">
<title>null_resource.deploy_manager&#45;&gt;null_resource.docker_worker1</title>
<path fill="none" stroke="black" d="M1628.78,-83.8C1620.26,-84.69 1611.66,-85.59 1603.1,-86.48"/>
<polygon fill="black" stroke="black" points="1602.68,-83 1593.1,-87.52 1603.41,-89.97 1602.68,-83"/>
</g>
<!-- null_resource.docker_worker2 -->
<g id="node4" class="node">
<title>null_resource.docker_worker2</title>
<polygon fill="none" stroke="black" points="1593,-63 1371,-63 1371,-27 1593,-27 1593,-63"/>
<text text-anchor="middle" x="1482" y="-41.3" font-family="sans-serif" font-size="14.00">null_resource.docker_worker2</text>
</g>
<!-- null_resource.deploy_manager&#45;&gt;null_resource.docker_worker2 -->
<g id="edge2" class="edge">
<title>null_resource.deploy_manager&#45;&gt;null_resource.docker_worker2</title>
<path fill="none" stroke="black" d="M1628.78,-60.2C1620.26,-59.31 1611.66,-58.41 1603.1,-57.52"/>
<polygon fill="black" stroke="black" points="1603.41,-54.03 1593.1,-56.48 1602.68,-61 1603.41,-54.03"/>
</g>
<!-- null_resource.manager&#45;init -->
<g id="node6" class="node">
<title>null_resource.manager&#45;init</title>
<polygon fill="none" stroke="black" points="1335,-90 1135,-90 1135,-54 1335,-54 1335,-90"/>
<text text-anchor="middle" x="1235" y="-68.3" font-family="sans-serif" font-size="14.00">null_resource.manager&#45;init</text>
</g>
<!-- null_resource.docker_worker1&#45;&gt;null_resource.manager&#45;init -->
<g id="edge3" class="edge">
<title>null_resource.docker_worker1&#45;&gt;null_resource.manager&#45;init</title>
<path fill="none" stroke="black" d="M1370.68,-86.84C1362.29,-85.92 1353.81,-84.98 1345.42,-84.06"/>
<polygon fill="black" stroke="black" points="1345.56,-80.55 1335.24,-82.94 1344.79,-87.51 1345.56,-80.55"/>
</g>
<!-- null_resource.docker_worker2&#45;&gt;null_resource.manager&#45;init -->
<g id="edge4" class="edge">
<title>null_resource.docker_worker2&#45;&gt;null_resource.manager&#45;init</title>
<path fill="none" stroke="black" d="M1370.68,-57.16C1362.29,-58.08 1353.81,-59.02 1345.42,-59.94"/>
<polygon fill="black" stroke="black" points="1344.79,-56.49 1335.24,-61.06 1345.56,-63.45 1344.79,-56.49"/>
</g>
<!-- null_resource.manager -->
<g id="node5" class="node">
<title>null_resource.manager</title>
<polygon fill="none" stroke="black" points="1099,-144 924,-144 924,-108 1099,-108 1099,-144"/>
<text text-anchor="middle" x="1011.5" y="-122.3" font-family="sans-serif" font-size="14.00">null_resource.manager</text>
</g>
<!-- yandex_compute_instance.swarm&#45;manager -->
<g id="node9" class="node">
<title>yandex_compute_instance.swarm&#45;manager</title>
<polygon fill="none" stroke="black" points="888,-144 570,-144 570,-108 888,-108 888,-144"/>
<text text-anchor="middle" x="729" y="-122.3" font-family="sans-serif" font-size="14.00">yandex_compute_instance.swarm&#45;manager</text>
</g>
<!-- null_resource.manager&#45;&gt;yandex_compute_instance.swarm&#45;manager -->
<g id="edge5" class="edge">
<title>null_resource.manager&#45;&gt;yandex_compute_instance.swarm&#45;manager</title>
<path fill="none" stroke="black" d="M923.67,-126C915.46,-126 906.96,-126 898.31,-126"/>
<polygon fill="black" stroke="black" points="898.1,-122.5 888.1,-126 898.1,-129.5 898.1,-122.5"/>
</g>
<!-- null_resource.manager&#45;init&#45;&gt;null_resource.manager -->
<g id="edge6" class="edge">
<title>null_resource.manager&#45;init&#45;&gt;null_resource.manager</title>
<path fill="none" stroke="black" d="M1159.94,-90.06C1139.52,-95.03 1117.24,-100.47 1096.32,-105.57"/>
<polygon fill="black" stroke="black" points="1095.38,-102.19 1086.49,-107.96 1097.04,-108.99 1095.38,-102.19"/>
</g>
<!-- null_resource.worker1 -->
<g id="node7" class="node">
<title>null_resource.worker1</title>
<polygon fill="none" stroke="black" points="1096,-90 927,-90 927,-54 1096,-54 1096,-90"/>
<text text-anchor="middle" x="1011.5" y="-68.3" font-family="sans-serif" font-size="14.00">null_resource.worker1</text>
</g>
<!-- null_resource.manager&#45;init&#45;&gt;null_resource.worker1 -->
<g id="edge7" class="edge">
<title>null_resource.manager&#45;init&#45;&gt;null_resource.worker1</title>
<path fill="none" stroke="black" d="M1134.91,-72C1125.44,-72 1115.85,-72 1106.43,-72"/>
<polygon fill="black" stroke="black" points="1106.28,-68.5 1096.28,-72 1106.28,-75.5 1106.28,-68.5"/>
</g>
<!-- null_resource.worker2 -->
<g id="node8" class="node">
<title>null_resource.worker2</title>
<polygon fill="none" stroke="black" points="1096,-36 927,-36 927,0 1096,0 1096,-36"/>
<text text-anchor="middle" x="1011.5" y="-14.3" font-family="sans-serif" font-size="14.00">null_resource.worker2</text>
</g>
<!-- null_resource.manager&#45;init&#45;&gt;null_resource.worker2 -->
<g id="edge8" class="edge">
<title>null_resource.manager&#45;init&#45;&gt;null_resource.worker2</title>
<path fill="none" stroke="black" d="M1159.94,-53.94C1139.52,-48.97 1117.24,-43.53 1096.32,-38.43"/>
<polygon fill="black" stroke="black" points="1097.04,-35.01 1086.49,-36.04 1095.38,-41.81 1097.04,-35.01"/>
</g>
<!-- yandex_compute_instance.swarm&#45;worker1 -->
<g id="node10" class="node">
<title>yandex_compute_instance.swarm&#45;worker1</title>
<polygon fill="none" stroke="black" points="885,-90 573,-90 573,-54 885,-54 885,-90"/>
<text text-anchor="middle" x="729" y="-68.3" font-family="sans-serif" font-size="14.00">yandex_compute_instance.swarm&#45;worker1</text>
</g>
<!-- null_resource.worker1&#45;&gt;yandex_compute_instance.swarm&#45;worker1 -->
<g id="edge9" class="edge">
<title>null_resource.worker1&#45;&gt;yandex_compute_instance.swarm&#45;worker1</title>
<path fill="none" stroke="black" d="M926.72,-72C916.69,-72 906.19,-72 895.5,-72"/>
<polygon fill="black" stroke="black" points="895.19,-68.5 885.19,-72 895.19,-75.5 895.19,-68.5"/>
</g>
<!-- yandex_compute_instance.swarm&#45;worker2 -->
<g id="node11" class="node">
<title>yandex_compute_instance.swarm&#45;worker2</title>
<polygon fill="none" stroke="black" points="885,-36 573,-36 573,0 885,0 885,-36"/>
<text text-anchor="middle" x="729" y="-14.3" font-family="sans-serif" font-size="14.00">yandex_compute_instance.swarm&#45;worker2</text>
</g>
<!-- null_resource.worker2&#45;&gt;yandex_compute_instance.swarm&#45;worker2 -->
<g id="edge10" class="edge">
<title>null_resource.worker2&#45;&gt;yandex_compute_instance.swarm&#45;worker2</title>
<path fill="none" stroke="black" d="M926.72,-18C916.69,-18 906.19,-18 895.5,-18"/>
<polygon fill="black" stroke="black" points="895.19,-14.5 885.19,-18 895.19,-21.5 895.19,-14.5"/>
</g>
<!-- yandex_compute_instance.swarm&#45;manager&#45;&gt;data.yandex_compute_image.ubuntu -->
<g id="edge11" class="edge">
<title>yandex_compute_instance.swarm&#45;manager&#45;&gt;data.yandex_compute_image.ubuntu</title>
<path fill="none" stroke="black" d="M569.53,-113.05C561.16,-112.37 552.78,-111.69 544.46,-111.01"/>
<polygon fill="black" stroke="black" points="544.59,-107.51 534.34,-110.18 544.02,-114.48 544.59,-107.51"/>
</g>
<!-- yandex_vpc_subnet.subnet -->
<g id="node13" class="node">
<title>yandex_vpc_subnet.subnet</title>
<polygon fill="none" stroke="black" points="499.5,-63 293.5,-63 293.5,-27 499.5,-27 499.5,-63"/>
<text text-anchor="middle" x="396.5" y="-41.3" font-family="sans-serif" font-size="14.00">yandex_vpc_subnet.subnet</text>
</g>
<!-- yandex_compute_instance.swarm&#45;manager&#45;&gt;yandex_vpc_subnet.subnet -->
<g id="edge12" class="edge">
<title>yandex_compute_instance.swarm&#45;manager&#45;&gt;yandex_vpc_subnet.subnet</title>
<path fill="none" stroke="black" d="M594.75,-107.99C586.25,-105.39 577.92,-102.41 570,-99 551.63,-91.09 552.27,-80.14 534,-72 526.15,-68.5 517.83,-65.45 509.35,-62.79"/>
<polygon fill="black" stroke="black" points="510.29,-59.42 499.71,-59.96 508.31,-66.14 510.29,-59.42"/>
</g>
<!-- yandex_compute_instance.swarm&#45;worker1&#45;&gt;data.yandex_compute_image.ubuntu -->
<g id="edge13" class="edge">
<title>yandex_compute_instance.swarm&#45;worker1&#45;&gt;data.yandex_compute_image.ubuntu</title>
<path fill="none" stroke="black" d="M572.91,-84.67C563.43,-85.44 553.9,-86.22 544.45,-86.99"/>
<polygon fill="black" stroke="black" points="543.92,-83.53 534.24,-87.83 544.49,-90.5 543.92,-83.53"/>
</g>
<!-- yandex_compute_instance.swarm&#45;worker1&#45;&gt;yandex_vpc_subnet.subnet -->
<g id="edge14" class="edge">
<title>yandex_compute_instance.swarm&#45;worker1&#45;&gt;yandex_vpc_subnet.subnet</title>
<path fill="none" stroke="black" d="M572.91,-59.33C551.68,-57.6 530.22,-55.84 509.94,-54.19"/>
<polygon fill="black" stroke="black" points="510.03,-50.68 499.78,-53.36 509.46,-57.66 510.03,-50.68"/>
</g>
<!-- yandex_compute_instance.swarm&#45;worker2&#45;&gt;data.yandex_compute_image.ubuntu -->
<g id="edge15" class="edge">
<title>yandex_compute_instance.swarm&#45;worker2&#45;&gt;data.yandex_compute_image.ubuntu</title>
<path fill="none" stroke="black" d="M594.75,-36.01C586.25,-38.61 577.92,-41.59 570,-45 551.63,-52.91 552.27,-63.86 534,-72 529.36,-74.07 524.56,-75.98 519.67,-77.74"/>
<polygon fill="black" stroke="black" points="518.49,-74.45 510.14,-80.96 520.73,-81.08 518.49,-74.45"/>
</g>
<!-- yandex_compute_instance.swarm&#45;worker2&#45;&gt;yandex_vpc_subnet.subnet -->
<g id="edge16" class="edge">
<title>yandex_compute_instance.swarm&#45;worker2&#45;&gt;yandex_vpc_subnet.subnet</title>
<path fill="none" stroke="black" d="M572.91,-30.67C551.68,-32.4 530.22,-34.16 509.94,-35.81"/>
<polygon fill="black" stroke="black" points="509.46,-32.34 499.78,-36.64 510.03,-39.32 509.46,-32.34"/>
</g>
<!-- yandex_vpc_network.network -->
<g id="node12" class="node">
<title>yandex_vpc_network.network</title>
<polygon fill="none" stroke="black" points="223,-63 0,-63 0,-27 223,-27 223,-63"/>
<text text-anchor="middle" x="111.5" y="-41.3" font-family="sans-serif" font-size="14.00">yandex_vpc_network.network</text>
</g>
<!-- yandex_vpc_subnet.subnet&#45;&gt;yandex_vpc_network.network -->
<g id="edge17" class="edge">
<title>yandex_vpc_subnet.subnet&#45;&gt;yandex_vpc_network.network</title>
<path fill="none" stroke="black" d="M293.33,-45C273.83,-45 253.24,-45 233.22,-45"/>
<polygon fill="black" stroke="black" points="233.13,-41.5 223.13,-45 233.13,-48.5 233.13,-41.5"/>
</g>
</g>
</svg>
